<svg width="305" height="304" viewBox="0 0 305 304" fill="none" xmlns="http://www.w3.org/2000/svg">
<path fill-rule="evenodd" clip-rule="evenodd" d="M37.0191 111.324C80.4501 141.028 152.5 152 152.5 152C152.5 152 152.506 152.037 152.517 152.109C145.048 153.318 78.6696 164.674 37.7262 192.676C31.3347 195.773 25.29 200.014 19.9175 205.387C-3.90451 229.209 -5.48742 266.249 16.3819 288.118C38.2513 309.987 75.2915 308.405 99.1134 284.583C102.36 281.336 105.194 277.844 107.611 274.178C137.782 236.055 150.639 167.188 152.854 154.159C155.068 167.188 167.925 236.055 198.096 274.178C200.514 277.844 203.347 281.336 206.594 284.583C230.416 308.405 267.456 309.987 289.325 288.118C311.195 266.249 309.612 229.209 285.79 205.387C280.417 200.014 274.372 195.773 267.981 192.676C228.998 166.014 166.957 154.444 154.659 152.354C167.688 150.139 236.555 137.283 274.678 107.111C278.344 104.694 281.836 101.86 285.083 98.6134C308.905 74.7914 310.487 37.7513 288.618 15.882C266.749 -5.98741 229.709 -4.40451 205.887 19.4175C200.514 24.79 196.273 30.8347 193.176 37.2262C165.174 78.1696 153.818 144.548 152.609 152.017C152.537 152.006 152.5 152 152.5 152C152.5 152 140.324 72.0502 106.904 29.8219C104.486 26.1562 101.653 22.6641 98.4063 19.4175C74.5843 -4.4045 37.5442 -5.98741 15.6748 15.882C-6.19452 37.7513 -4.61161 74.7915 19.2104 98.6134C24.5829 103.986 30.6276 108.227 37.0191 111.324Z" fill="#FBC193"/>
</svg>
