<svg width="328" height="330" viewBox="0 0 328 330" fill="none" xmlns="http://www.w3.org/2000/svg">
<path fill-rule="evenodd" clip-rule="evenodd" d="M131.074 23.5685C143.242 35.7367 154.943 55.0832 163.446 75.937C172.047 53.5343 184.481 32.4214 197.445 19.457C227.988 -11.0857 273.046 -1.26937 299.646 25.3306C326.246 51.9306 339.587 93.4643 305.52 127.531C290.293 142.758 267.395 156.063 243.957 164.447C269.458 172.983 294.429 186.923 309.044 201.539C339.587 232.081 329.77 277.139 303.17 303.739C276.57 330.339 235.037 343.68 200.97 309.613C185.302 293.945 171.67 270.156 163.339 246.014C154.93 268.93 141.867 291.184 126.962 306.089C92.8955 340.155 51.3617 326.815 24.7617 300.215C-1.83822 273.615 -11.6546 228.557 18.8881 198.014C31.6154 185.287 52.1959 173.071 74.1403 164.491C54.4683 156.165 35.9564 144.599 22.9997 131.643C-11.0672 97.5759 2.27329 56.0421 28.8733 29.4421C55.4732 2.84215 100.531 -6.9742 131.074 23.5685ZM211.396 118.356C185.188 143.503 143.897 143.79 117.342 119.009C142.489 145.218 142.776 186.508 117.995 213.063C144.204 187.916 185.494 187.629 212.049 212.41C186.902 186.201 186.615 144.911 211.396 118.356Z" fill="#97B9A4"/>
</svg>
