<svg width="315" height="314" viewBox="0 0 315 314" fill="none" xmlns="http://www.w3.org/2000/svg">
<path d="M158.494 6.07293L166.649 83.3536C167.706 93.3689 180.549 96.8163 186.479 88.6765L232.268 25.8251C232.44 25.5896 232.576 25.4881 232.645 25.4453C232.715 25.4018 232.777 25.3808 232.842 25.3703C232.99 25.3463 233.265 25.3677 233.578 25.5484C233.89 25.7291 234.046 25.9573 234.098 26.0973C234.122 26.159 234.134 26.2229 234.131 26.3053C234.129 26.3865 234.109 26.5553 233.99 26.8214L202.349 97.7484C198.243 106.952 207.647 116.373 216.858 112.284L287.937 80.7265C288.204 80.6082 288.372 80.5885 288.454 80.5859C288.536 80.5832 288.6 80.5959 288.662 80.6193C288.801 80.6723 289.029 80.8286 289.209 81.1414C289.39 81.4541 289.41 81.7297 289.386 81.8773C289.375 81.9423 289.354 82.0039 289.311 82.0739C289.268 82.1428 289.166 82.279 288.93 82.4501L226.047 128.043C217.882 133.963 221.325 146.835 231.355 147.888L308.654 156.005C308.944 156.036 309.101 156.103 309.172 156.141C309.245 156.18 309.294 156.223 309.336 156.274C309.43 156.39 309.55 156.639 309.55 157C309.55 157.361 309.43 157.61 309.336 157.726C309.294 157.777 309.245 157.82 309.172 157.859C309.101 157.897 308.944 157.964 308.654 157.995L231.355 166.112C221.325 167.165 217.882 180.037 226.047 185.957L288.93 231.55C289.166 231.721 289.268 231.857 289.311 231.926C289.354 231.996 289.375 232.058 289.386 232.123C289.41 232.27 289.39 232.546 289.209 232.859C289.029 233.171 288.801 233.328 288.662 233.381C288.6 233.404 288.536 233.417 288.454 233.414C288.372 233.412 288.204 233.392 287.937 233.273L216.858 201.716C207.647 197.627 198.243 207.048 202.349 216.252L233.99 287.179C234.109 287.445 234.129 287.613 234.131 287.695C234.134 287.777 234.122 287.841 234.098 287.903C234.046 288.043 233.89 288.271 233.577 288.452C233.265 288.632 232.99 288.654 232.842 288.63C232.777 288.619 232.715 288.598 232.645 288.555C232.576 288.512 232.44 288.41 232.268 288.175L186.479 225.323C180.549 217.184 167.706 220.631 166.649 230.646L158.494 307.927C158.464 308.217 158.397 308.373 158.358 308.444C158.32 308.517 158.277 308.566 158.226 308.608C158.11 308.703 157.861 308.822 157.5 308.822C157.139 308.822 156.89 308.703 156.774 308.608C156.723 308.566 156.68 308.517 156.642 308.444C156.603 308.373 156.536 308.217 156.506 307.927L148.351 230.646C147.294 220.631 134.451 217.184 128.521 225.323L82.7316 288.175C82.5601 288.41 82.4237 288.512 82.3547 288.555C82.2846 288.598 82.223 288.619 82.1579 288.63C82.0102 288.654 81.7347 288.632 81.4225 288.452C81.1103 288.271 80.9545 288.043 80.9016 287.903C80.8783 287.841 80.8658 287.777 80.8686 287.695C80.8714 287.614 80.8914 287.445 81.0101 287.179L112.651 216.252C116.757 207.048 107.353 197.627 98.1419 201.716L27.0629 233.273C26.7965 233.392 26.6275 233.412 26.5464 233.414C26.464 233.417 26.4001 233.404 26.3385 233.381C26.1986 233.328 25.9707 233.171 25.7906 232.859C25.6104 232.546 25.5896 232.27 25.6139 232.123C25.6245 232.058 25.6457 231.996 25.6893 231.926C25.7323 231.857 25.8341 231.721 26.0701 231.55L88.9528 185.957C97.1183 180.037 93.6754 167.165 83.6447 166.112L6.34561 157.995C6.05564 157.964 5.89936 157.897 5.82773 157.859C5.75503 157.82 5.70598 157.777 5.66425 157.726C5.5696 157.61 5.45005 157.361 5.45005 157C5.45005 156.639 5.5696 156.39 5.66425 156.274C5.70598 156.223 5.75503 156.18 5.82773 156.141C5.89936 156.103 6.05564 156.036 6.34561 156.005L83.6447 147.888C93.6755 146.835 97.1182 133.963 88.9528 128.043L26.0701 82.45C25.8341 82.2789 25.7322 82.1427 25.6893 82.0739C25.6456 82.0039 25.6245 81.9423 25.6138 81.8773C25.5896 81.7297 25.6104 81.4541 25.7905 81.1414C25.9707 80.8286 26.1986 80.6723 26.3384 80.6193C26.4001 80.5959 26.464 80.5832 26.5464 80.5859C26.6275 80.5885 26.7965 80.6082 27.0629 80.7265L98.1419 112.284C107.353 116.373 116.757 106.952 112.651 97.7484L81.0101 26.8214C80.8914 26.5553 80.8714 26.3865 80.8686 26.3053C80.8658 26.2229 80.8783 26.159 80.9016 26.0973C80.9545 25.9573 81.1103 25.7291 81.4225 25.5484C81.7347 25.3678 82.0102 25.3464 82.1579 25.3703C82.223 25.3808 82.2847 25.4018 82.3547 25.4453C82.4237 25.4881 82.5601 25.5897 82.7316 25.8251L128.521 88.6766C134.451 96.8164 147.294 93.3689 148.351 83.3536L156.506 6.07294C156.536 5.78329 156.603 5.62714 156.642 5.5555C156.68 5.4828 156.723 5.43371 156.774 5.39196C156.89 5.29728 157.139 5.17787 157.5 5.17787C157.861 5.17787 158.11 5.29728 158.226 5.39196C158.277 5.43371 158.32 5.48279 158.358 5.5555C158.397 5.62714 158.464 5.78329 158.494 6.07293Z" stroke="#97B9A4" stroke-width="10"/>
</svg>
